<mxfile host="www.draw.io" modified="2020-02-09T17:01:59.178Z" agent="Mozilla/5.0 (X11; Linux x86_64) AppleWebKit/537.36 (KHTML, like Gecko) Ubuntu Chromium/79.0.3945.130 Chrome/79.0.3945.130 Safari/537.36" etag="4yAxpS2AS7gqZW1v5pdu" version="12.6.6" type="github">
  <diagram id="kYeky8b0LC1dGFlgTo5r" name="Page-1">
    <mxGraphModel dx="757" dy="2143" grid="1" gridSize="10" guides="1" tooltips="1" connect="1" arrows="1" fold="1" page="1" pageScale="1" pageWidth="850" pageHeight="1100" math="0" shadow="0">
      <root>
        <mxCell id="0"/>
        <mxCell id="1" parent="0"/>
        <mxCell id="nLx0mnERVW1Fyyu8IXdI-2" value="Client" style="outlineConnect=0;fontColor=#232F3E;gradientColor=none;strokeColor=#232F3E;fillColor=#ffffff;dashed=0;verticalLabelPosition=bottom;verticalAlign=top;align=center;html=1;fontSize=12;fontStyle=0;aspect=fixed;shape=mxgraph.aws4.resourceIcon;resIcon=mxgraph.aws4.client;" vertex="1" parent="1">
          <mxGeometry x="60" y="80" width="60" height="60" as="geometry"/>
        </mxCell>
        <mxCell id="nLx0mnERVW1Fyyu8IXdI-3" value="" style="image;html=1;labelBackgroundColor=#ffffff;image=img/lib/clip_art/computers/Server_Tower_128x128.png" vertex="1" parent="1">
          <mxGeometry x="650" y="80" width="80" height="80" as="geometry"/>
        </mxCell>
        <mxCell id="nLx0mnERVW1Fyyu8IXdI-4" value="" style="shape=link;html=1;strokeWidth=5;" edge="1" parent="1">
          <mxGeometry width="50" height="50" relative="1" as="geometry">
            <mxPoint x="90" y="670" as="sourcePoint"/>
            <mxPoint x="89.5" y="200" as="targetPoint"/>
          </mxGeometry>
        </mxCell>
        <mxCell id="nLx0mnERVW1Fyyu8IXdI-5" value="" style="shape=link;html=1;strokeWidth=5;" edge="1" parent="1">
          <mxGeometry width="50" height="50" relative="1" as="geometry">
            <mxPoint x="700.5" y="670" as="sourcePoint"/>
            <mxPoint x="700" y="200" as="targetPoint"/>
          </mxGeometry>
        </mxCell>
        <mxCell id="nLx0mnERVW1Fyyu8IXdI-6" value="Server" style="text;html=1;strokeColor=none;fillColor=none;align=center;verticalAlign=middle;whiteSpace=wrap;rounded=0;" vertex="1" parent="1">
          <mxGeometry x="680" y="160" width="40" height="20" as="geometry"/>
        </mxCell>
      </root>
    </mxGraphModel>
  </diagram>
</mxfile>
